<?xml version="1.0" encoding="UTF-8" standalone="no"?>
<svg
   xmlns:dc="http://purl.org/dc/elements/1.1/"
   xmlns:cc="http://creativecommons.org/ns#"
   xmlns:rdf="http://www.w3.org/1999/02/22-rdf-syntax-ns#"
   xmlns:svg="http://www.w3.org/2000/svg"
   xmlns="http://www.w3.org/2000/svg"
   viewBox="0 0 122.77333 30.24"
   height="30.24"
   width="122.77333"
   xml:space="preserve"
   id="svg2"
   version="1.1"><metadata
     id="metadata8"><rdf:RDF><cc:Work
         rdf:about=""><dc:format>image/svg+xml</dc:format><dc:type
           rdf:resource="http://purl.org/dc/dcmitype/StillImage" /></cc:Work></rdf:RDF></metadata><defs
     id="defs6"><clipPath
       id="clipPath20"
       clipPathUnits="userSpaceOnUse"><path
         id="path18"
         d="M 0,226.801 V 0 h 920.844 v 226.801 z" /></clipPath></defs><g
     transform="matrix(1.3333333,0,0,-1.3333333,0,30.24)"
     id="g10"><g
       transform="scale(0.1)"
       id="g12"><g
         id="g14"><g
           clip-path="url(#clipPath20)"
           id="g16"><path
             id="path22"
             style="fill:#0d4d84;fill-opacity:1;fill-rule:nonzero;stroke:none"
             d="M 93.8672,56.7188 V 137.641 L 64.4727,58.3008 H 49.2383 L 20,138.598 V 56.7188 H 0 V 170.082 H 27.8516 L 57.5586,89.3359 87.4609,170.082 H 113.867 V 56.7188 H 93.8672" /><path
             id="path24"
             style="fill:#1565af;fill-opacity:1;fill-rule:nonzero;stroke:none"
             d="M 177.734,144.828 161.563,97.0117 h 32.363 z m 29.903,-88.1092 -7.364,21.7382 h -45.097 l -7.324,-21.7382 h -20.801 l 39.785,113.3632 h 22.578 L 229.219,56.7188 h -21.582" /><path
             id="path26"
             style="fill:#158f9c;fill-opacity:1;fill-rule:nonzero;stroke:none"
             d="M 392.539,56.7188 361.816,110.277 342.305,87.4023 V 56.7188 H 321.699 V 170.082 h 20.606 v -52.246 l 45.254,52.246 h 25.175 L 376.23,127.25 416.836,56.7188 h -24.297" /><path
             id="path28"
             style="fill:#47b4a0;fill-opacity:1;fill-rule:nonzero;stroke:none"
             d="m 486.094,145.961 c -4.453,4.805 -11.367,7.519 -17.91,7.519 -6.563,0 -13.418,-2.714 -17.93,-7.519 -7.813,-8.164 -8.125,-22.246 -8.125,-32.637 0,-10.394 0.312,-24.3396 8.125,-32.4451 4.512,-4.8437 11.367,-7.5586 17.93,-7.5586 6.543,0 13.457,2.7149 17.91,7.5586 7.812,8.1055 8.144,22.0511 8.144,32.4451 0,10.391 -0.332,24.473 -8.144,32.637 z m 14.687,-78.5391 c -8.613,-8.6328 -20.468,-12.8125 -32.597,-12.8125 -12.149,0 -23.985,4.1797 -32.637,12.8125 -12.285,12.3047 -14.375,27.3242 -14.375,45.9021 0,18.555 2.09,33.731 14.375,46.055 8.652,8.613 20.488,12.812 32.637,12.812 12.129,0 23.984,-4.199 32.597,-12.812 12.324,-12.324 14.434,-27.5 14.434,-46.055 0,-18.5779 -2.11,-33.5974 -14.434,-45.9021" /><path
             id="path30"
             style="fill:#91979b;fill-opacity:1;fill-rule:nonzero;stroke:none"
             d="m 581.074,152.016 h -27.168 v -33.887 h 27.52 c 11.621,0 18.379,6.094 18.379,16.816 0,9.082 -7.071,17.071 -18.731,17.071 z M 598.047,56.7188 579.141,99.5703 H 554.063 V 56.7188 H 533.262 V 170.082 h 47.812 c 27.031,0 39.336,-16.953 39.336,-35.137 0,-15.215 -8.32,-27.226 -20.781,-31.84 L 620.41,56.7188 h -22.363" /><path
             id="path32"
             style="fill:#0377af;fill-opacity:1;fill-rule:nonzero;stroke:none"
             d="m 262.598,122.445 24.55,47.637 h 20.938 L 272.402,100.195 V 56.7188 h -20.8 v 43.4762 l -35.43,69.926 21.875,-0.039 24.551,-47.637" /><path
             id="path34"
             style="fill:#91979b;fill-opacity:1;fill-rule:nonzero;stroke:none"
             d="m 734.828,132.289 v 0 l -65.449,37.793 V 56.7188 L 767.566,0 v 75.6055 l -32.738,18.9258 v 37.7577" /><path
             id="path36"
             style="fill:#bfc3c5;fill-opacity:1;fill-rule:nonzero;stroke:none"
             d="m 767.566,151.215 32.715,-18.926 65.504,37.793 -98.219,56.719 -98.187,-56.719 65.449,-37.793 32.738,18.926" /><path
             id="path38"
             style="fill:#676c70;fill-opacity:1;fill-rule:nonzero;stroke:none"
             d="M 800.281,132.289 V 94.5313 L 767.566,75.6055 V 0 l 98.219,56.7188 V 170.082 l -65.504,-37.793" /><path
             id="path40"
             style="fill:#231f20;fill-opacity:1;fill-rule:nonzero;stroke:none"
             d="m 903.363,195.512 h -3.75 v -5.938 h 3.75 c 2.071,0 3.379,0.86 3.379,3.028 0,1.992 -1.523,2.91 -3.379,2.91 z m 3.301,-16.211 -3.203,7.109 h -3.789 v -7.109 h -3.399 v 19.355 h 7.09 c 3.711,0 6.914,-2.129 6.914,-6.054 0,-2.579 -1.093,-4.571 -3.476,-5.645 l 3.554,-7.656 z m -4.062,24.726 c -8.965,0 -14.903,-6.523 -14.903,-15.39 0,-8.828 5.938,-15.293 14.903,-15.293 8.945,0 14.843,6.523 14.843,15.371 0,8.828 -5.898,15.312 -14.843,15.312 z m 0,-33.945 c -10.469,0 -18.262,8.223 -18.262,18.555 0,10.371 7.793,18.613 18.262,18.613 10.468,0 18.242,-8.184 18.242,-18.535 0,-10.352 -7.774,-18.633 -18.242,-18.633" /></g></g></g></g></svg>